General
Complete name        :WWE.Superstars.3.11.2011.1080p.H.264.Mp4.Full.show.MM.By.Snaw90.mp4
Format                                   : MP4
File size                                : 1.23 GiB
Duration                                 : 42mn 13s


Video

Format                                   : AVC
Format profile                           : High@L4.2
Duration                                 : 42mn 13s
Width                                    : 1280 pixels
Height                                   : 1080 pixels
Display aspect ratio                     : 16:9
Frame rate                               : 24.000 fps
Standard                                 : NTSC
Chroma subsampling                       : 4:2:0
Stream size                              : 1.18 GiB (96%)
Language                                 : English


Audio

Format                                   : AAC
Duration                                 : 42mn 13s
Channel(s)                               : 2 channels
Stream size                              : 47.6 MiB (4%)
Language                                 : English


